<?xml version="1.0" encoding="utf-8"?>
<!-- Generator: Adobe Illustrator 21.1.0, SVG Export Plug-In . SVG Version: 6.00 Build 0)  -->
<svg version="1.1" id="Layer_5" xmlns="http://www.w3.org/2000/svg" xmlns:xlink="http://www.w3.org/1999/xlink" x="0px" y="0px"
	 viewBox="0 0 512 512" style="enable-background:new 0 0 512 512;" xml:space="preserve">
<g>
	<g>
		<g>
			<path d="M8.4,255.9h0.3c4.6,0,8.4-3.6,8.5-8.2c4.6-131.9,115.3-235,247.2-230.4C315.2,19,364,36.9,403.9,68.3h-45.4
				c-4.7,0-8.5,3.8-8.5,8.5c0,4.7,3.8,8.5,8.5,8.5h68.3h0.1c0.7-0.1,1.3-0.2,2-0.4c0.4-0.1,0.9-0.2,1.3-0.3c0.2-0.1,0.4-0.3,0.6-0.4
				c0.8-0.4,1.5-0.9,2.1-1.5l0.1-0.1c0.2-0.3,0.4-0.6,0.6-0.9c0.4-0.5,0.8-1.1,1.1-1.8c0.2-0.7,0.4-1.4,0.4-2.1
				c0.1-0.4,0.2-0.7,0.2-1.1V8.5c0-4.7-3.8-8.5-8.5-8.5c-4.7,0-8.5,3.8-8.5,8.5V58C308.9-31.6,147.6-15.6,58,93.7
				C22.4,137.1,2.1,191,0.2,247.1C0,251.8,3.7,255.7,8.4,255.9z"/>
			<path d="M77.5,414.8c-3.1-3.5-8.5-3.9-12.1-0.7c-3.5,3.1-3.9,8.5-0.7,12.1c5.9,6.6,12.1,12.9,18.6,18.8c3.5,3.1,8.9,2.8,12-0.8
				c3-3.4,2.8-8.7-0.5-11.8C88.7,426.8,83,421,77.5,414.8z"/>
			<path d="M179.4,482.4c-7.8-2.6-15.5-5.7-23-9.1c-4.2-2.1-9.3-0.4-11.4,3.9c-2.1,4.2-0.4,9.3,3.9,11.4c0.1,0.1,0.3,0.1,0.4,0.2
				c8,3.7,16.2,7,24.6,9.8c4.5,1.5,9.3-0.9,10.8-5.4C186.2,488.7,183.8,483.9,179.4,482.4z"/>
			<path d="M134.5,461.8L134.5,461.8c-7.1-4.2-14-8.8-20.6-13.7c-3.7-2.9-9.1-2.3-12,1.4c-2.9,3.7-2.3,9.1,1.4,12
				c0.1,0.1,0.3,0.2,0.4,0.3c7.1,5.3,14.5,10.1,22,14.6c4.1,2.4,9.3,1.1,11.7-3C139.9,469.4,138.6,464.2,134.5,461.8z"/>
			<path d="M62,395.5c-4.8-6.7-9.3-13.6-13.4-20.8c-2.4-4.1-7.6-5.5-11.7-3.1c-4.1,2.4-5.5,7.6-3.1,11.7c4.4,7.6,9.2,15,14.3,22.2
				c2.8,3.8,8.2,4.5,12,1.7C63.8,404.5,64.6,399.3,62,395.5z"/>
			<path d="M38.2,356.3c0-1.2-0.2-2.4-0.7-3.5l0-0.1c-3.3-7.5-6.3-15.2-8.8-23c-1.2-4.5-5.9-7.2-10.5-6c-4.5,1.2-7.2,5.9-6,10.5
				c0.1,0.3,0.2,0.5,0.3,0.8c2.7,8.4,5.9,16.7,9.5,24.7c1.4,3.1,4.4,5.1,7.8,5.1C34.4,364.8,38.2,361,38.2,356.3z"/>
			<path d="M15.7,316C15.7,316,15.7,316,15.7,316L15.7,316c4.6-1,7.6-5.5,6.6-10.1c-1.7-8.1-3-16.2-3.9-24.4
				c-0.5-4.7-4.7-8.1-9.4-7.6c-4.7,0.5-8.1,4.7-7.6,9.4c0.9,8.8,2.3,17.5,4.1,26.1C6.6,314,11.1,316.9,15.7,316z"/>
			<path d="M498.5,307.2C498.5,307.2,498.5,307.2,498.5,307.2c-4.6-1.1-9.2,1.7-10.3,6.2c-2,8-4.4,15.9-7.2,23.6
				c-1.6,4.4,0.7,9.3,5.1,10.9c4.4,1.6,9.3-0.7,10.9-5.1c3-8.3,5.6-16.8,7.7-25.3C505.9,313,503.1,308.4,498.5,307.2z"/>
			<path d="M227.5,493.2c-8.2-1-16.3-2.4-24.3-4.2c-4.6-1-9.2,1.8-10.2,6.4c-1,4.6,1.8,9.2,6.4,10.2c8.6,1.9,17.3,3.4,26.1,4.5
				c0.3,0,0.7,0.1,1,0.1c4.7,0,8.5-3.8,8.5-8.6C235,497.4,231.8,493.7,227.5,493.2z"/>
			<path d="M482.8,355.9L482.8,355.9c-4.2-2-9.3-0.3-11.4,4c-3.6,7.4-7.6,14.6-11.9,21.6c-2.4,4-1.1,9.3,3,11.7
				c4,2.4,9.1,1.2,11.5-2.7c4.6-7.5,8.9-15.3,12.7-23.2C488.8,363.1,487,358,482.8,355.9z"/>
			<path d="M457.6,400.3c-3.7-2.9-9.1-2.3-12,1.4c-0.1,0.1-0.1,0.1-0.2,0.2v0c-5,6.5-10.4,12.8-16.1,18.8c-3.3,3.4-3.1,8.8,0.3,12.1
				s8.8,3.1,12.1-0.3c6.1-6.4,11.8-13.1,17.2-20.1C461.9,408.6,461.2,403.2,457.6,400.3z"/>
			<path d="M503.8,256.4c-4.6-0.2-8.6,3.3-8.8,8c0,0.1,0,0.2,0,0.3c-0.3,8.2-1,16.4-2.1,24.6c-0.6,4.7,2.6,9,7.3,9.6
				c0.4,0.1,0.8,0.1,1.2,0.1c4.3,0,7.9-3.1,8.4-7.4c1.2-8.7,2-17.5,2.3-26.4C512.2,260.5,508.5,256.6,503.8,256.4z"/>
			<path d="M411.4,437.6L411.4,437.6c-6.3,5.4-12.8,10.4-19.6,15.1c-3.9,2.7-4.9,8-2.2,11.9c2.7,3.9,8,4.9,11.9,2.2
				c7.3-5,14.3-10.5,21-16.2c3.6-3.1,4-8.4,0.9-12C420.4,434.9,415,434.5,411.4,437.6z"/>
			<path d="M325.3,484.8L325.3,484.8c-7.9,2.4-15.9,4.3-24,5.9c-4.6,0.9-7.7,5.4-6.8,10c0.8,4,4.3,6.9,8.4,6.9c0.5,0,1.1,0,1.6-0.1
				c8.7-1.7,17.3-3.8,25.7-6.3c4.5-1.5,6.9-6.3,5.4-10.8C334.3,486,329.7,483.6,325.3,484.8z"/>
			<path d="M277.3,494c-0.2,0-0.3,0-0.5,0l0,0c-6.8,0.6-13.8,0.9-20.8,0.9h-3.9c-4.7,0.1-8.5,3.7-8.7,8.4c-0.1,4.7,3.7,8.6,8.4,8.7
				c0,0,0,0,0,0h4.2c7.5,0,14.9-0.3,22.2-1c4.7-0.3,8.3-4.3,8-9C286,497.3,282,493.7,277.3,494z"/>
			<path d="M370.8,465.7L370.8,465.7c-7.2,4-14.6,7.5-22.2,10.7c-4.4,1.8-6.5,6.7-4.7,11.1s6.7,6.5,11.1,4.7c0.1,0,0.1-0.1,0.2-0.1
				c8.1-3.4,16.1-7.3,23.8-11.5c4.1-2.3,5.6-7.5,3.4-11.6C380.1,464.9,374.9,463.4,370.8,465.7z"/>
			<path d="M256.1,76.8c-99,0-179.3,80.2-179.3,179.2s80.3,179.2,179.3,179.2S435.3,355,435.3,256C435.2,157.1,355,76.9,256.1,76.8z
				 M392.7,264.5h25.2c-4.4,82.7-70.5,148.7-153.2,153.2v-25.2c0-4.7-3.8-8.5-8.5-8.5c-4.7,0-8.5,3.8-8.5,8.5v25.2
				c-82.7-4.4-148.8-70.5-153.2-153.2h25.2c4.7,0,8.5-3.8,8.5-8.5c0-4.7-3.8-8.5-8.5-8.5H94.3c4.4-82.7,70.5-148.7,153.2-153.2v25.2
				c0,4.7,3.8,8.5,8.5,8.5c4.7,0,8.5-3.8,8.5-8.5V94.3c82.7,4.4,148.8,70.5,153.2,153.2h-25.2c-4.7,0-8.5,3.8-8.5,8.5
				C384.1,260.7,387.9,264.5,392.7,264.5z"/>
			<path d="M264.6,232v-78.4c0-4.7-3.8-8.5-8.5-8.5c-4.7,0-8.5,3.8-8.5,8.5V232c-7.2,2.6-12.9,8.3-15.5,15.5h-44.3
				c-4.7,0-8.5,3.8-8.5,8.5c0,4.7,3.8,8.5,8.5,8.5H232c4.7,13.3,19.3,20.3,32.6,15.6c13.3-4.7,20.3-19.3,15.6-32.6
				C277.7,240.3,271.9,234.5,264.6,232z M256.1,264.5c-4.7,0-8.5-3.8-8.5-8.5c0-4.7,3.8-8.5,8.5-8.5c4.7,0,8.5,3.8,8.5,8.5
				C264.6,260.7,260.8,264.5,256.1,264.5z"/>
		</g>
	</g>
</g>
</svg>
