<?xml version="1.0" encoding="utf-8"?>
<!-- Generator: Adobe Illustrator 21.1.0, SVG Export Plug-In . SVG Version: 6.00 Build 0)  -->
<svg version="1.1" id="Capa_1" xmlns="http://www.w3.org/2000/svg" xmlns:xlink="http://www.w3.org/1999/xlink" x="0px" y="0px"
	 viewBox="0 0 480 480" style="enable-background:new 0 0 480 480;" xml:space="preserve">
<style type="text/css">
	.st0{fill:none;stroke:#000000;stroke-width:15;stroke-miterlimit:10;}
</style>
<circle class="st0" cx="240" cy="240" r="225.8"/>
<g>
	<path d="M256,224.8l9.1,9.1h-75c-3.3,0-6.2,2.9-6.2,6.2s2.9,6.2,6.2,6.2h75l-9.1,9.1c-2.5,2.5-2.5,6.2,0,8.7
		c1.2,1.2,2.9,1.7,4.6,1.7s3.3-0.4,4.6-1.7l24-24l-24-24c-2.5-2.5-6.2-2.5-8.7,0C253.9,218.6,253.5,222.7,256,224.8z"/>
	<path d="M419.6,216.1c-2.5-2.5-6.2-2.5-8.7,0c-2.5,2.5-2.5,6.2,0,8.7l9.1,9.1h-33.1c-19.5,0-35.2-15.7-35.2-35.2
		c0-26.1-21.1-47.6-47.6-47.6h-11.6c-3.3,0-6.2,2.9-6.2,6.2s2.9,6.2,6.2,6.2H304c19.5,0,35.2,15.7,35.2,35.2
		c0,14.1,6.2,26.5,15.7,35.2h-9.1c-26.1,0-47.6,21.1-47.6,47.6c0,19.5-15.7,35.2-35.2,35.2h-12.8c-3.3,0-6.2,2.9-6.2,6.2
		s2.9,6.2,6.2,6.2H263c26.1,0,47.6-21.1,47.6-47.6c0-19.5,15.7-35.2,35.2-35.2h41H420l-9.1,9.1c-2.5,2.5-2.5,6.2,0,8.7
		c1.2,1.2,2.9,1.7,4.6,1.7c1.7,0,3.3-0.4,4.6-1.7l24-24L419.6,216.1z"/>
	<path d="M104.8,246.3h21.5c26.1,0,47.6-21.1,47.6-47.6c0-19.5,15.7-35.2,35.2-35.2h25.7l-9.1,9.1c-2.5,2.5-2.5,6.2,0,8.7
		c1.2,1.2,2.9,1.7,4.6,1.7s3.3-0.4,4.6-1.7l24-24l-24-24c-2.5-2.5-6.2-2.5-8.7,0c-2.5,2.5-2.5,6.2,0,8.7l9.1,9.1h-25.7
		c-26.1,0-47.6,21.1-47.6,47.6c0,19.5-15.7,35.2-35.2,35.2h-21.5c-3.3,0-6.2,2.9-6.2,6.2S101.5,246.3,104.8,246.3z"/>
	<path d="M185.5,298.9c-2.5,2.5-2.5,6.2,0,8.7l9.1,9.1h-68.3c-19.5,0-35.2-15.7-35.2-35.2c0-26.1-21.1-47.6-47.6-47.6h-1.2
		c-3.3,0-6.2,2.9-6.2,6.2s2.9,6.2,6.2,6.2h1.2c19.5,0,35.2,15.7,35.2,35.2c0,26.1,21.1,47.6,47.6,47.6h68.3l-9.1,9.1
		c-2.5,2.5-2.5,6.2,0,8.7c1.2,1.2,2.9,1.7,4.6,1.7s3.3-0.4,4.6-1.7l24-24l-24.4-24C191.8,296.4,188,296.4,185.5,298.9z"/>
</g>
</svg>
