<?xml version="1.0" encoding="utf-8"?>
<!-- Generator: Adobe Illustrator 21.1.0, SVG Export Plug-In . SVG Version: 6.00 Build 0)  -->
<svg version="1.1" id="Layer_5" xmlns="http://www.w3.org/2000/svg" xmlns:xlink="http://www.w3.org/1999/xlink" x="0px" y="0px"
	 viewBox="0 0 512 512" style="enable-background:new 0 0 512 512;" xml:space="preserve">
<g>
	<g>
		<g>
			<path d="M361.7,173.2l-5.4-17.9c-6.9-20.3-29-31.2-49.3-24.3c-11.4,3.9-20.4,12.9-24.3,24.3l-5.4,17.9c-4.6,15.1-5.5,31-2.8,46.6
				c2.5,13.1,10.8,24.3,22.6,30.5l-6.1,136.1c-0.8,7.6,1.6,15.2,6.8,20.8c11,12.1,29.7,12.9,41.8,1.9c0.7-0.6,1.3-1.2,1.9-1.9
				c5-5.5,7.5-12.9,6.8-20.3L342,250.3c11.7-6.2,20-17.4,22.5-30.5C367.3,204.3,366.3,188.3,361.7,173.2z M347.9,216.8
				c-1.8,9.4-8.5,17.1-17.6,20.2c-3.4,1.3-5.6,4.6-5.5,8.3l6.4,142.9c0.3,2.8-0.6,5.6-2.5,7.7c-5.1,5-13.3,5-18.4,0
				c-2-2.2-2.9-5.3-2.5-8.2l6.4-142.4c0.2-3.7-2-7-5.5-8.3c-9-3.1-15.7-10.8-17.6-20.2c-2.3-12.9-1.5-26.1,2.3-38.7l5.4-17.9
				c4.2-11.4,16.8-17.2,28.2-13c6,2.2,10.8,7,13,13l5.4,17.9C349.3,190.7,350.1,203.9,347.9,216.8z"/>
		</g>
	</g>
	<g>
		<g>
			<path d="M230.6,129c-4.7,0-8.5,3.8-8.5,8.5v72.7l-22.9,22.9c-1.7,1.7-2.6,4-2.5,6.4l7.4,148.2c0.2,3.2-1,6.3-3.2,8.6
				c-4.6,4.7-12.2,4.7-16.9,0.1c0,0,0,0-0.1-0.1c-2.2-2.3-3.4-5.4-3.2-8.6l7.5-148.2c0.1-2.4-0.8-4.7-2.5-6.4l-22.9-22.9v-72.7
				c0-4.7-3.8-8.5-8.5-8.5c-4.7,0-8.5,3.8-8.5,8.5v76.2c0,2.2,0.9,4.4,2.5,6l22.7,22.7l-7.2,144.4c-0.8,15.8,11.4,29.2,27.2,30
				s29.2-11.4,30-27.2c0-0.9,0-1.9,0-2.8l-7.2-144.4l22.7-22.7c1.6-1.6,2.5-3.7,2.5-6v-76.2C239.1,132.8,235.3,129,230.6,129z"/>
		</g>
	</g>
	<g>
		<g>
			<path d="M179.8,129c-4.7,0-8.5,3.8-8.5,8.5v67.7c0,4.7,3.8,8.5,8.5,8.5s8.5-3.8,8.5-8.5v-67.7C188.3,132.8,184.5,129,179.8,129z"
				/>
		</g>
	</g>
	<g>
		<g>
			<path d="M205.2,129c-4.7,0-8.5,3.8-8.5,8.5v67.7c0,4.7,3.8,8.5,8.5,8.5s8.5-3.8,8.5-8.5v-67.7C213.7,132.8,209.9,129,205.2,129z"
				/>
		</g>
	</g>
	<g>
		<g>
			<path d="M256,2C115.7,2,2,115.7,2,256s113.7,254,254,254s254-113.7,254-254C509.8,115.8,396.2,2.2,256,2z M256,493.1
				C125.1,493.1,18.9,386.9,18.9,256S125.1,18.9,256,18.9S493.1,125.1,493.1,256C492.9,386.9,386.9,492.9,256,493.1z"/>
		</g>
	</g>
	<g>
		<g>
			<path d="M283.5,414.9c-0.5-4.7-4.6-8.1-9.2-7.6c-0.1,0-0.2,0-0.3,0l0,0c-11.9,1.4-24,1.4-35.9,0c-4.6-0.5-8.9,2.8-9.4,7.4
				c-0.5,4.6,2.8,8.9,7.4,9.4c13.2,1.5,26.6,1.5,39.8,0C280.5,423.7,283.9,419.6,283.5,414.9z"/>
		</g>
	</g>
	<g>
		<g>
			<path d="M385.5,146.9c-3-3.6-8.3-4.1-11.9-1c0,0,0,0,0,0c-3.6,3-4,8.4-1,11.9c51,60.6,47.1,150.2-9,206.1c-3.3,3.3-3.3,8.7,0,12
				c3.3,3.3,8.7,3.3,12,0C437.9,313.8,442.3,214.2,385.5,146.9z"/>
		</g>
	</g>
	<g>
		<g>
			<g>
				<path d="M199.3,113.9C199.3,113.9,199.3,113.9,199.3,113.9C199.2,113.9,199.2,113.9,199.3,113.9L199.3,113.9z"/>
				<path d="M295.9,91.4c-33.1-7.9-67.8-5.8-99.7,6.1c-4.4,1.6-6.6,6.5-4.9,10.9c1.2,3.3,4.4,5.5,7.9,5.5c1,0,2-0.2,3-0.5
					c28.7-10.7,60-12.6,89.7-5.5c4.5,1.1,9.1-1.7,10.2-6.2C303.3,97.1,300.5,92.5,295.9,91.4z"/>
			</g>
		</g>
	</g>
	<g>
		<g>
			<path d="M148,363.5c-28.5-28.5-44.5-67.2-44.4-107.5c-0.1-32.2,10.1-63.6,29.1-89.6c2.8-3.7,2.1-9-1.7-11.9
				c-3.7-2.8-9-2.1-11.9,1.7c0,0.1-0.1,0.1-0.1,0.2c-49,67.3-41.7,160.2,17,219.1c3.3,3.3,8.7,3.3,12,0
				C151.3,372.2,151.4,366.8,148,363.5z"/>
		</g>
	</g>
</g>
</svg>
