<?xml version="1.0" encoding="utf-8"?>
<!-- Generator: Adobe Illustrator 21.1.0, SVG Export Plug-In . SVG Version: 6.00 Build 0)  -->
<svg version="1.1" id="Capa_1" xmlns="http://www.w3.org/2000/svg" xmlns:xlink="http://www.w3.org/1999/xlink" x="0px" y="0px"
	 viewBox="0 0 480 480" style="enable-background:new 0 0 480 480;" xml:space="preserve">
<style type="text/css">
	.st0{stroke:#000000;stroke-width:2;stroke-miterlimit:10;}
	.st1{fill:none;stroke:#000000;stroke-width:15;stroke-miterlimit:10;}
</style>
<path class="st0" d="M348.3,89.2c-3.3,0-5.9,2.6-5.9,5.9v31h-36.6c-3.3,0-5.9,2.6-5.9,5.9s2.5,5.9,5.9,5.9h36.6v37.2
	c0,3.3,2.5,5.9,5.9,5.9s5.9-2.6,5.9-5.9v-37.2h31c3.3,0,5.9-2.5,5.9-5.9c0-3.3-2.6-5.9-5.9-5.9h-31v-31
	C354.2,91.7,351.6,89.2,348.3,89.2z M168.6,126.1c-23.7,0-42.8,19.1-42.8,42.8v6.2c0,3.3,2.5,5.9,5.9,5.9s5.9-2.6,5.9-5.9v-6.2
	c0-17.1,14-31,31-31h6.2c3.3,0,5.9-2.5,5.9-5.9s-2.6-5.9-5.9-5.9H168.6z M224,126.1c-3.3,0-5.9,2.6-5.9,5.9s2.5,5.9,5.9,5.9h32
	c3.3,0,5.9-2.5,5.9-5.9s-2.6-5.9-5.9-5.9H224z M131.7,218.4c-3.3,0-5.9,2.5-5.9,5.9v32c0,3.3,2.5,5.9,5.9,5.9s5.9-2.6,5.9-5.9v-32
	C137.6,221,135,218.4,131.7,218.4z M348.3,218.4c-3.3,0-5.9,2.5-5.9,5.9v32c0,3.3,2.5,5.9,5.9,5.9s5.9-2.6,5.9-5.9v-32
	C354.2,221,351.7,218.4,348.3,218.4z M131.7,299.7c-3.3,0-5.9,2.6-5.9,5.9v36.6h-31c-3.3,0-5.9,2.5-5.9,5.9s2.6,5.9,5.9,5.9h31v31
	c0,3.3,2.5,5.9,5.9,5.9s5.9-2.6,5.9-5.9v-31h37.2c3.3,0,5.9-2.6,5.9-5.9s-2.6-5.9-5.9-5.9h-37.2v-36.6
	C137.6,302.2,135,299.7,131.7,299.7z M348.3,299.7c-3.3,0-5.9,2.5-5.9,5.9v5.5c0,17.1-14,31-31,31h-6.2c-3.3,0-5.9,2.5-5.9,5.9
	s2.6,5.9,5.9,5.9h6.2c23.7,0,42.8-19.1,42.8-42.8v-5.5C354.2,302.2,351.7,299.7,348.3,299.7L348.3,299.7z M224,342.1
	c-3.3,0-5.9,2.5-5.9,5.9c0,3.3,2.5,5.9,5.9,5.9h32c3.3,0,5.9-2.6,5.9-5.9c0-3.3-2.6-5.9-5.9-5.9H224z"/>
<circle class="st1" cx="240" cy="240" r="225.8"/>
</svg>
