<?xml version="1.0" encoding="utf-8"?>
<!-- Generator: Adobe Illustrator 21.1.0, SVG Export Plug-In . SVG Version: 6.00 Build 0)  -->
<svg version="1.1" id="Capa_1" xmlns="http://www.w3.org/2000/svg" xmlns:xlink="http://www.w3.org/1999/xlink" x="0px" y="0px"
	 viewBox="0 0 480 480" style="enable-background:new 0 0 480 480;" xml:space="preserve">
<style type="text/css">
	.st0{fill:none;stroke:#000000;stroke-width:15;stroke-miterlimit:10;}
</style>
<circle class="st0" cx="240" cy="240" r="225.8"/>
<path d="M254.7,263.4c-2.2,0-4.2-1.5-4.8-3.6l-9.7-33.4l-12,33.6c-0.7,2-2.6,3.4-4.8,3.4h-2.1c-2.2,0-4.1-1.4-4.8-3.5l-11.6-36.6
	c-0.5-1.6-0.2-3.2,0.7-4.5c1-1.3,2.4-2.1,4.1-2.1h0.2c2.3,0,4.3,1.5,4.9,3.7l8.2,29.5l11-29.9c0.7-2,2.6-3.3,4.7-3.3h2.7
	c2.2,0,4.2,1.4,4.8,3.5l9.3,29.5l9.7-29.5c0.7-2.1,2.6-3.5,4.8-3.5c1.7,0,3.2,0.8,4.1,2.2c1,1.4,1.2,3.1,0.6,4.6L261.5,260
	c-0.7,2-2.6,3.3-4.7,3.3h-2.1V263.4z"/>
<path d="M239,412.7c-4.2,0-7.6-3.4-7.6-7.6v-92l-5.2-1c-29.8-5.5-53.4-29.3-58.7-59.2l-0.9-5.3h-86l5.6,9.6c0.3,0.7,0.7,1.2,1.1,1.7
	c19.1,29.1,55.4,66.6,99.7,84.6c3.9,1.6,5.7,6,4.2,9.9c-1.1,2.9-3.9,4.8-7,4.8c-1,0-2-0.2-2.8-0.5c-47.4-19.2-86.2-59.2-106.7-90.3
	c-10.9-16.5-10.9-37.9,0-54.4c20.2-30.8,58.6-70.6,105.7-90c0.9-0.3,1.9-0.5,2.9-0.5c3.1,0,5.8,1.8,7,4.7c0.8,1.9,0.8,3.9,0,5.8
	c-0.8,1.9-2.3,3.4-4,4c-43.9,18.1-79.9,55.4-99,84.3c-0.3,0.4-0.6,0.8-0.8,1.2c-0.1,0.1-5.8,10-5.8,10h86.1l0.9-5.3
	c5.3-29.9,28.9-53.7,58.7-59.2l5.2-0.9V74.9c0-4.2,3.4-7.6,7.6-7.6c4.3,0,7.6,3.3,7.6,7.6v91.8l5.3,0.9c30.5,5.1,54.6,29,60,59.4
	l0.9,5.3h84.7l-5.6-9.6c-0.2-0.4-0.4-0.7-0.6-1.1c-0.1-0.1-0.2-0.3-0.3-0.5c-18.9-29-54.7-66.3-98.5-84.4c-3.9-1.6-5.7-6-4.2-9.9
	c1.2-2.8,3.9-4.7,7-4.7c1,0,2,0.2,2.9,0.6c47.1,19.4,85.3,59.3,105.4,90.1c10.7,16.4,10.7,37.7,0,54.1c-1.4,2.2-3.8,3.4-6.4,3.4
	c-1.5,0-2.9-0.4-4.2-1.2c-3.5-2.3-4.5-7-2.2-10.5c0.2-0.3,0.3-0.5,0.4-0.7c0.2-0.2,0.3-0.5,0.5-0.7l5.6-9.7h-84.7l-0.9,5.3
	c-5.4,30.4-29.5,54.3-60,59.4l-5.3,0.9v91.8C246.6,409.3,243.1,412.7,239,412.7z M239.7,181.8c-32.1,0-58.2,26.1-58.2,58.2
	s26.1,58.2,58.2,58.2s58.2-26.1,58.2-58.2S271.8,181.8,239.7,181.8z M294.5,358.1c-3.1,0-5.8-1.8-7-4.7c-0.8-1.8-0.7-3.8,0-5.9
	c0.8-1.8,2.2-3.2,4.1-4c21.6-8.8,42.5-22.6,62.3-41.2c1.4-1.3,3.2-2,5.2-2c2.1,0,4,0.8,5.5,2.4c1.4,1.5,2.1,3.5,2,5.5
	c-0.1,2-0.9,3.9-2.4,5.2c-21,19.8-43.5,34.6-66.9,44.1C296.5,357.9,295.5,358.1,294.5,358.1z"/>
</svg>
